 http://forum.tntvillage.scambioetico.org/tntforum/index.php?showtopic=11057

.: Trama :.

Negli anni '60 tre inseparabili amici si divertono cavalcando le onde sulle spiagge della california. Il tempo passa, la vita li divide, ma le grandi onde ritornano per riunirli. Sono le celebri mareggiate dell'estate '62, autunno '65, inverno '68 e primavera '74.

.: Locandina :.

[img]http://www.cinekolossal.com/2/m/mercoledidaleoni/poster.jpg[/img]

.: Crediti :.

    * Regia: John Milius 
    * Sceneggiatura: Dennis Aaberg Joel Chernoff John Milius
    * Fotografia: Bruce Surtees 
    * Cast: Jan-Michael Vincent William Katt Gary Busey Patti D'Arbanville Lee Purcell Sam Melville Darrell Fetty Gerry Lopez Hank Worden Joe Spinell Steve Kanaly Barbara Hale Fran Ryan Dennis Aaberg Reb Brown Robert Englund Keith Davis Johnny Fain Richard Dano Michael Talbott Geoff Parks Ivar Arai Titus Napoleon Frank McRae Perry Lang Michael Raden Pat Beckwith Kathy McCullen Charlene Tilton Terry Bolo Kevan Dignam Sherry Lee Marks Cindy Daly Lynn Theel Janet Julian Lorie Busk Jack Bernardi Gray Frederickson Arthur Rosenberg Stephen Mendillo Aesop Aquarian Guy Larry Finley Richard O'Bryan Todd Lookinland Gary Boyle Sascha Jensen Christopher Woods Jimmy Bracken Kevin Schultz Stacy Keach Sr. Iris Korn Ollie O'Toole Celia Kaye Clete Roberts Herb Voland John Milius Richard O'Neal Marty Thomas Robert S. Woods 
    * Produzione: Tamara Asseyev Buzz Feitshans Greg MacGillivray Alexandra Rose 
    * Colonna Sonora: Basil Poledouris 
    * Montaggio: Carroll Timothy O'Meara Robert L. Wolfe 

========================================

.: Dati tecnici del file :.

Stream #0.0: Video: DX50, 720x304, 25.00 fps, q=0-0
Stream #0.1: Audio: mp3, 44100 Hz, stereo, 128 kb/s